<?xml version="1.0" standalone="no"?>
<svg viewBox="0 0 200 200" xmlns="http://www.w3.org/2000/svg">
  <path fill="#13203C" d="M34.3,-53.8C47.6,-51.8,63.6,-48.9,70.3,-39.7C77.1,-30.6,74.6,-15.3,75.4,0.4C76.1,16.2,80,32.3,74.3,43.3C68.6,54.2,53.2,59.9,39.2,62.3C25.2,64.8,12.6,64,-1.1,65.8C-14.7,67.7,-29.5,72.1,-37.3,66.1C-45.1,60.1,-46,43.6,-53.9,30.8C-61.7,18.1,-76.5,9,-81.3,-2.7C-86,-14.5,-80.7,-29,-73.3,-42.7C-66,-56.3,-56.7,-69.2,-44.1,-71.6C-31.6,-74,-15.8,-66.1,-2.6,-61.5C10.5,-57,21.1,-55.9,34.3,-53.8Z" transform="translate(100 100)" />
</svg>
